<svg xmlns="http://www.w3.org/2000/svg" width="129.761" height="96.021" viewBox="0 0 129.761 96.021">
  <g id="Grupo_102" data-name="Grupo 102" transform="translate(-323.491 -420.714)">
    <g id="Caminho_60" data-name="Caminho 60" transform="translate(-8598 -3263.607)" fill="none" stroke-linecap="square" stroke-linejoin="round">
      <path d="M8924.491,3777.342h123.761v-75.077H9022.7l-10.569-14.944h-50.378l-12.683,14.944h-24.583Z" stroke="none"/>
      <path d="M 9048.251953125 3777.342041015625 L 9048.251953125 3702.2646484375 L 9022.7041015625 3702.2646484375 L 9012.134765625 3687.32080078125 L 8961.7568359375 3687.32080078125 L 8949.07421875 3702.2646484375 L 8924.4912109375 3702.2646484375 L 8924.4912109375 3777.342041015625 L 9048.251953125 3777.342041015625 M 9048.251953125 3780.342041015625 L 8924.4912109375 3780.342041015625 C 8922.833984375 3780.342041015625 8921.4912109375 3778.9990234375 8921.4912109375 3777.342041015625 L 8921.4912109375 3702.2646484375 C 8921.4912109375 3700.60791015625 8922.833984375 3699.2646484375 8924.4912109375 3699.2646484375 L 8947.685546875 3699.2646484375 L 8959.4697265625 3685.379638671875 C 8960.0390625 3684.7080078125 8960.8759765625 3684.32080078125 8961.7568359375 3684.32080078125 L 9012.134765625 3684.32080078125 C 9013.1083984375 3684.32080078125 9014.021484375 3684.79345703125 9014.583984375 3685.58837890625 L 9024.2568359375 3699.2646484375 L 9048.251953125 3699.2646484375 C 9049.9091796875 3699.2646484375 9051.251953125 3700.60791015625 9051.251953125 3702.2646484375 L 9051.251953125 3777.342041015625 C 9051.251953125 3778.9990234375 9049.9091796875 3780.342041015625 9048.251953125 3780.342041015625 Z" stroke="none" fill="#c8c8c8"/>
    </g>
    <g id="Elipse_44" data-name="Elipse 44" transform="translate(363 451)" fill="none" stroke="#c8c8c8" stroke-width="3">
      <ellipse cx="25.5" cy="25" rx="25.5" ry="25" stroke="none"/>
      <ellipse cx="25.5" cy="25" rx="24" ry="23.5" fill="none"/>
    </g>
  </g>
</svg>
