<svg id="lápis" xmlns="http://www.w3.org/2000/svg" viewBox="0 0 70 70"><title>lápis</title><path d="M31.43,70.14a1.36,1.36,0,0,1-1-.44,1.35,1.35,0,0,1-.2-1.61c.66-1.2,1.46-2.7,2.29-4.25,5.06-9.49,5.56-10.08,6.7-9.76a2.84,2.84,0,0,1,2,2.57,4.6,4.6,0,0,1,0,.83A4.11,4.11,0,0,1,45,59.56l.14.27a3.72,3.72,0,0,0,.21.39l.18-.17c7.3-7.11,14.43-14.58,21.18-22.2a2.5,2.5,0,0,0,.6-1.19c.26-1.31.14-1.49-.88-2.53-1.41-1.44-2.91-2.87-4.63-2.76s-3,1.48-4.24,2.93c-2.94,3.35-5.72,6.51-8.49,9.68l-8.47,9.67a1,1,0,0,1-1.41.09,1,1,0,0,1-.09-1.41l8.47-9.67c2.77-3.16,5.54-6.33,8.49-9.68,1.48-1.69,3.26-3.5,5.65-3.61S66.24,31,67.9,32.73c1.41,1.44,1.82,2.27,1.41,4.32a4.46,4.46,0,0,1-1.07,2.12C61.46,46.84,54.3,54.34,47,61.48a2.3,2.3,0,0,1-1.79.81,2.33,2.33,0,0,1-1.79-1.57l-.12-.22a2.17,2.17,0,0,0-2.47-.94,1.39,1.39,0,0,1-1.37-.31,1.36,1.36,0,0,1-.36-1.33,3,3,0,0,0,.13-1.08,1.44,1.44,0,0,0-.16-.52c-1,1.4-3.23,5.58-4.77,8.46l-1.33,2.49c1.37-.76,2.49-1.49,3.66-2.25,1.39-.9,2.83-1.84,4.81-2.91a1,1,0,1,1,1,1.76c-1.91,1-3.31,1.95-4.67,2.83A47.24,47.24,0,0,1,32,70,1.37,1.37,0,0,1,31.43,70.14ZM41,58.44Z" transform="translate(-14.75 -14.75)"/><path d="M49.75,84.75a35,35,0,1,1,35-35A35,35,0,0,1,49.75,84.75Zm0-68a33,33,0,1,0,33,33A33,33,0,0,0,49.75,16.75Z" transform="translate(-14.75 -14.75)"/></svg>