<svg id="Camada_6" data-name="Camada 6" xmlns="http://www.w3.org/2000/svg" viewBox="0 0 47.59 32.12"><title>olho fechado2</title><path d="M74.34,57.46a25,25,0,0,1-4.14-5.09c.52-.5,1-1,1.51-1.57a1,1,0,0,0-.08-1.41,1,1,0,0,0-1.42.09,27.72,27.72,0,0,1-38.79,2.63C34.27,48,40.78,40,49,38.48c7.63-1.44,15.7,1.09,20.54,6.45a1,1,0,0,0,1.49-1.35C65.74,37.72,57,35,48.65,36.52c-9.16,1.73-16.07,10.26-19.38,15.2A1,1,0,0,0,29.43,53a26.55,26.55,0,0,0,2.17,1.8,27,27,0,0,1-4.24,5.39,1,1,0,0,0,0,1.42,1,1,0,0,0,.71.3,1,1,0,0,0,.7-.29A28.9,28.9,0,0,0,33.24,56a29.89,29.89,0,0,0,7.89,3.63,33.73,33.73,0,0,1-1.49,7.32,1,1,0,0,0,.65,1.26,1,1,0,0,0,.3,0,1,1,0,0,0,.95-.7,35.47,35.47,0,0,0,1.54-7.42,30.16,30.16,0,0,0,6.43.71c.51,0,1,0,1.52,0A28.67,28.67,0,0,0,56.18,60a23.77,23.77,0,0,0,3,7.5,1,1,0,0,0,1.37.33,1,1,0,0,0,.33-1.37,21.94,21.94,0,0,1-2.73-7A30.11,30.11,0,0,0,68.7,53.74,27.14,27.14,0,0,0,73,58.91a1,1,0,0,0,.68.28,1,1,0,0,0,.69-1.73Z" transform="translate(-27.06 -36.09)"/></svg>