<svg id="olho_aberto" data-name="olho aberto" xmlns="http://www.w3.org/2000/svg" viewBox="0 0 46.67 30.58"><title>olho aberto</title><path d="M45.82,59.18A26.92,26.92,0,0,1,24.12,48a1,1,0,0,1,0-1.13,63.79,63.79,0,0,1,7.67-10,23.59,23.59,0,0,1,8.61-5.66c.34-.24.69-.47,1-.68C45.8,28,51.76,28,57.37,30.43c5,2.17,9,5.73,12.9,9.18A1,1,0,1,1,69,41.11c-3.8-3.34-7.72-6.8-12.38-8.85a19.25,19.25,0,0,0-7.33-1.66A12.46,12.46,0,0,1,55.33,34c3.34,3.49,3.88,9.06,1.23,12.68-2.05,2.81-5.78,4.36-10,4.15-4.44-.22-8.31-2.41-10.11-5.71a10.52,10.52,0,0,1,.37-9.94,24.64,24.64,0,0,0-3.65,3,58.28,58.28,0,0,0-7,9.13,24.84,24.84,0,0,0,21.27,9.76,24.8,24.8,0,0,0,20-13.26,1,1,0,1,1,1.79.91A26.87,26.87,0,0,1,47.57,59.12C47,59.16,46.4,59.18,45.82,59.18ZM41.36,32.94c-3.24,2.53-5.18,7.46-3.12,11.24,1.75,3.22,5.51,4.52,8.45,4.67,2.71.13,6.31-.67,8.25-3.33,2.06-2.82,1.59-7.36-1-10.12a11.63,11.63,0,0,0-10.57-3A14.14,14.14,0,0,0,41.36,32.94Z" transform="translate(-23.94 -28.6)"/></svg>