<?xml version="1.0" encoding="UTF-8" standalone="no"?>
<!-- Created with Inkscape (http://www.inkscape.org/) -->

<svg
   xmlns:dc="http://purl.org/dc/elements/1.1/"
   xmlns:cc="http://creativecommons.org/ns#"
   xmlns:rdf="http://www.w3.org/1999/02/22-rdf-syntax-ns#"
   xmlns:svg="http://www.w3.org/2000/svg"
   xmlns="http://www.w3.org/2000/svg"
   xmlns:sodipodi="http://sodipodi.sourceforge.net/DTD/sodipodi-0.dtd"
   xmlns:inkscape="http://www.inkscape.org/namespaces/inkscape"
   width="30mm"
   height="30mm"
   viewBox="0 0 30 30"
   version="1.1"
   id="svg1119"
   inkscape:version="0.92.4 (5da689c313, 2019-01-14)"
   sodipodi:docname="bate_papo.svg">
  <defs
     id="defs1113" />
  <sodipodi:namedview
     id="base"
     pagecolor="#ffffff"
     bordercolor="#666666"
     borderopacity="1.0"
     inkscape:pageopacity="0.0"
     inkscape:pageshadow="2"
     inkscape:zoom="2.8"
     inkscape:cx="13.257784"
     inkscape:cy="111.00966"
     inkscape:document-units="mm"
     inkscape:current-layer="layer1"
     showgrid="false"
     inkscape:snap-bbox="true"
     inkscape:bbox-paths="true"
     inkscape:bbox-nodes="true"
     inkscape:snap-global="true"
     inkscape:window-width="2560"
     inkscape:window-height="1017"
     inkscape:window-x="-8"
     inkscape:window-y="-8"
     inkscape:window-maximized="1"
     showguides="true"
     inkscape:guide-bbox="true">
    <sodipodi:guide
       position="0,0"
       orientation="0,113.38583"
       id="guide1664"
       inkscape:locked="false" />
    <sodipodi:guide
       position="30,0"
       orientation="-113.38583,0"
       id="guide1666"
       inkscape:locked="false" />
    <sodipodi:guide
       position="30,30"
       orientation="0,-113.38583"
       id="guide1668"
       inkscape:locked="false" />
    <sodipodi:guide
       position="0,30"
       orientation="113.38583,0"
       id="guide1670"
       inkscape:locked="false" />
    <sodipodi:guide
       position="4.1694031,25.830597"
       orientation="0,1"
       id="guide1971"
       inkscape:locked="false" />
    <sodipodi:guide
       position="4.1694031,25.830597"
       orientation="1,0"
       id="guide1979"
       inkscape:locked="false" />
    <sodipodi:guide
       position="25.830597,25.830597"
       orientation="1,0"
       id="guide1981"
       inkscape:locked="false" />
    <sodipodi:guide
       position="30,4.0798035"
       orientation="0,1"
       id="guide1983"
       inkscape:locked="false" />
  </sodipodi:namedview>
  <metadata
     id="metadata1116">
    <rdf:RDF>
      <cc:Work
         rdf:about="">
        <dc:format>image/svg+xml</dc:format>
        <dc:type
           rdf:resource="http://purl.org/dc/dcmitype/StillImage" />
        <dc:title></dc:title>
      </cc:Work>
    </rdf:RDF>
  </metadata>
  <g
     inkscape:label="Camada 1"
     inkscape:groupmode="layer"
     id="layer1"
     transform="translate(0,-267)">
    <path
       style="fill:none;stroke:#000000;stroke-width:2;stroke-linecap:round;stroke-linejoin:miter;stroke-miterlimit:4;stroke-dasharray:none;stroke-opacity:1"
       d="m -634.89448,279.25153 c -5.22313,0 -10.50839,-0.86705 -11.78766,-2.53818 -6.9758,-9.11261 1.98115,-10.81363 1.91939,-6.33314 -0.0542,3.93148 -1.3718,5.41969 -2.03487,7.19517 -1.1249,3.0121 -2.44879,5.15453 -2.44879,10.855 0.15341,2.13244 0.53567,7.81055 6.28223,7.55915 h 7.6639"
       id="path819"
       inkscape:connector-curvature="0"
       sodipodi:nodetypes="csssccc" />
    <path
       sodipodi:nodetypes="cccccczc"
       inkscape:connector-curvature="0"
       id="path823"
       d="m -597.31687,276.70913 v 7.10202 c 0.12996,1.81 0.45467,6.6294 5.33219,6.41602 h 11.99009 c 5.06487,0 6.26088,-1.95316 6.26088,-5.60928 v -2.89381 c 0,-5.31127 -3.22546,-6.34138 -10.71147,-6.70317 -7.486,-0.36177 -13.60305,-1.83112 -14.70081,-7.17102"
       style="fill:none;stroke:#000000;stroke-width:2;stroke-linecap:round;stroke-linejoin:miter;stroke-miterlimit:4;stroke-dasharray:none;stroke-opacity:1" />
    <circle
       style="opacity:1;fill:none;fill-opacity:1;stroke:#000000;stroke-width:2;stroke-linecap:round;stroke-miterlimit:4;stroke-dasharray:none;stroke-dashoffset:0;stroke-opacity:1"
       id="path825"
       cx="-590.48712"
       cy="293.2139"
       r="2.9478948" />
    <circle
       id="circle827"
       style="opacity:1;fill:none;fill-opacity:1;stroke:#000000;stroke-width:2;stroke-linecap:round;stroke-miterlimit:4;stroke-dasharray:none;stroke-dashoffset:0;stroke-opacity:1"
       cx="-579.84186"
       cy="293.2139"
       r="2.9478948" />
    <path
       style="opacity:1;fill:none;fill-opacity:1;stroke:#000000;stroke-width:1.5;stroke-linecap:round;stroke-miterlimit:4;stroke-dasharray:none;stroke-dashoffset:0;stroke-opacity:1"
       d="m 21.578875,286.08045 2.814138,0.61359 c 1.018349,0.22204 0.783897,-0.0951 0.387279,-0.82219 l -0.868033,-1.59139 c -0.362399,-0.62767 -0.343369,-1.02924 -0.06869,-1.69118 0.672483,-1.85227 0.433157,-3.93715 -0.687538,-5.60278 -1.297518,-1.92839 -3.560711,-2.97409 -5.870198,-2.71234 -2.309501,0.26179 -4.281201,1.7875 -5.114202,3.95741 -0.616758,2.46772 1.858397,3.12817 2.754041,2.41169 0.95809,-0.76644 1.048437,-2.14472 -0.190102,-3.26359"
       id="circle827-2"
       inkscape:connector-curvature="0"
       sodipodi:nodetypes="cssccsccsc" />
    <path
       style="opacity:1;fill:none;fill-opacity:1;stroke:#000000;stroke-width:1.5;stroke-linecap:round;stroke-miterlimit:4;stroke-dasharray:none;stroke-dashoffset:0;stroke-opacity:1"
       d="m 16.763968,285.27019 c -1.157835,2.33051 -3.642285,3.69581 -6.230319,3.42377 -0.5351837,-0.0562 -1.0514789,-0.18009 -1.539526,-0.3634 -0.2155634,-0.0811 -0.7593496,-0.22916 -1.1855737,0.0344"
       id="circle844"
       inkscape:connector-curvature="0"
       sodipodi:nodetypes="ccsc" />
    <path
       sodipodi:nodetypes="cscc"
       inkscape:connector-curvature="0"
       id="path864"
       d="m 5.8398915,286.82277 -0.7349076,1.98593 c -0.287439,0.77677 -0.4321525,1.24054 0.4941806,0.76274 l 2.2187937,-1.21775"
       style="opacity:1;fill:none;fill-opacity:1;stroke:#000000;stroke-width:1.5;stroke-linecap:round;stroke-miterlimit:4;stroke-dasharray:none;stroke-dashoffset:0;stroke-opacity:1" />
    <path
       sodipodi:nodetypes="csscc"
       inkscape:connector-curvature="0"
       id="path866"
       d="m 5.8606123,286.75066 c 0.2346713,-0.61817 0.040395,-0.94783 -0.053129,-1.10625 -0.2870641,-0.49051 -0.5097867,-1.02568 -0.6561202,-1.59488 -0.647921,-2.52036 0.3390396,-5.17787 2.4749993,-6.66435 2.1359456,-1.48647 4.9708326,-1.48868 7.1090706,-0.004"
       style="opacity:1;fill:none;fill-opacity:1;stroke:#000000;stroke-width:1.5;stroke-linecap:round;stroke-miterlimit:4;stroke-dasharray:none;stroke-dashoffset:0;stroke-opacity:1" />
    <g
       id="g2084"
       transform="translate(277.8125)">
      <path
         sodipodi:nodetypes="cccccc"
         inkscape:connector-curvature="0"
         id="path872"
         d="m 11.586109,288.53535 h 11.566939 c 1.37373,0 1.960039,-0.63826 1.960039,-1.68645 v 0 c 0,-0.71206 -0.449142,-1.43274 -1.326754,-1.86585 -3.697138,-1.80772 -6.284549,-3.40283 -9.655326,-5.44102"
         style="fill:none;stroke:#000000;stroke-width:1.5;stroke-linecap:round;stroke-linejoin:miter;stroke-miterlimit:4;stroke-dasharray:none;stroke-opacity:1" />
      <path
         inkscape:connector-curvature="0"
         id="circle827-4"
         d="m 14.131007,279.54203 a 2.1769145,2.1769145 0 0 1 -1.007719,-2.57683 2.1769145,2.1769145 0 0 1 2.334989,-1.48438 2.1769145,2.1769145 0 0 1 1.905651,2.00603"
         style="opacity:1;fill:none;fill-opacity:1;stroke:#000000;stroke-width:1.5;stroke-linecap:round;stroke-miterlimit:4;stroke-dasharray:none;stroke-dashoffset:0;stroke-opacity:1" />
      <path
         style="fill:none;stroke:#000000;stroke-width:1.5;stroke-linecap:round;stroke-linejoin:miter;stroke-miterlimit:4;stroke-dasharray:none;stroke-opacity:1"
         d="M 18.667428,288.53535 H 6.8469549 c -1.3737295,0 -1.9600384,-0.63826 -1.9600384,-1.68645 v 0 c 0,-0.71206 0.4491418,-1.43274 1.3267539,-1.86585 2.3165708,-1.13269 3.6870356,-2.18193 6.0167946,-3.30898"
         id="path889"
         inkscape:connector-curvature="0"
         sodipodi:nodetypes="cccccc" />
    </g>
    <path
       style="fill:none;stroke:#000000;stroke-width:1.49844503;stroke-linecap:round;stroke-linejoin:miter;stroke-miterlimit:4;stroke-dasharray:none;stroke-opacity:1"
       d="m 157.50832,292.05989 v -5.53166 c 0,-0.9189 0.42451,-1.992 1.78228,-1.992 h 2.62106 c 0.92432,0 1.88713,0.47047 1.88713,1.88718 v 3.22386 c 0,1.30557 -0.0663,2.49764 1.78229,2.38513 h 2.72589 c 0.90293,0 2.04248,-0.54256 1.88714,-2.43754 V 281.391 c -0.0727,-1.54461 -0.24084,-2.15032 -1.25812,-3.14523 l -6.23804,-5.20019 c -1.10431,-1.1043 -2.34106,-2.03806 -4.40334,0.105 l -6.18564,5.14775 c -0.91479,0.91482 -1.4803,1.94578 -1.52022,3.61705 v 7.78496 c -0.0663,1.58192 0.39979,2.43708 1.90395,2.43708 h 1.55585"
       id="path925"
       inkscape:connector-curvature="0"
       sodipodi:nodetypes="cccccccccccccccccc" />
    <path
       style="fill:none;stroke:#000000;stroke-width:1.5;stroke-linecap:round;stroke-linejoin:miter;stroke-miterlimit:4;stroke-dasharray:none;stroke-opacity:1"
       d="m 144.36392,252.43604 v 11.16173 c 0.0555,1.96759 1.23485,2.63822 2.77346,2.63822 h 14.63853 c 2.10774,0.16377 2.80667,-0.93084 2.80667,-3.27858 V 252.9177 c 0,-2.55625 -1.72305,-2.82596 -2.90859,-2.82596 h -12.89405 c -0.88111,0 -2.96783,0.2909 -0.52651,1.90452 l 4.60141,3.69871 c 1.04221,0.60171 1.83216,0.9478 3.2701,0.20749 l 4.70173,-3.55021"
       id="path972"
       inkscape:connector-curvature="0"
       sodipodi:nodetypes="cccccccccccc" />
    <path
       style="fill:none;stroke:#000000;stroke-width:1.5;stroke-linecap:round;stroke-linejoin:miter;stroke-miterlimit:4;stroke-dasharray:none;stroke-opacity:1"
       d="m 112.39644,292.1546 h 10.01983 c 2.86055,0 2.44863,-2.36081 2.44863,-3.0968 v -2.64426 c 0,-1.20208 0.0115,-3.18189 -1.5163,-4.02562 -2.34407,-1.64178 -8.5416,-0.77786 -8.5416,-5.35728 v -2.27213 c 0,-1.2085 0.92259,-2.91319 2.65675,-2.91319 h 0.90629 c 1.15105,0.0353 2.63056,0.94738 2.63056,2.91319 v 2.66462 c 0,3.67729 -5.88473,3.69414 -8.62477,4.8778 -1.66313,0.83037 -1.65154,3.26795 -1.65154,4.24027 v 2.90312"
       id="path1008"
       inkscape:connector-curvature="0"
       sodipodi:nodetypes="cccccccccccccc" />
    <g
       id="g1995"
       transform="translate(121.42485)">
      <path
         sodipodi:nodetypes="cccccccc"
         inkscape:connector-curvature="0"
         id="path1010"
         d="m 21.02329,288.62116 v -14.40228 c 0,-0.97051 -0.03929,-2.30126 -2.377621,-2.30126 h -7.502896 c -1.8640532,0 -2.1642301,1.56729 -2.1642301,2.25089 v 15.1986 c -0.055867,1.50069 0.9995352,2.80056 2.4616871,2.80056 h 8.166095"
         style="fill:none;stroke:#000000;stroke-width:1.5;stroke-linecap:round;stroke-linejoin:miter;stroke-miterlimit:4;stroke-dasharray:none;stroke-opacity:1" />
      <path
         sodipodi:nodetypes="cc"
         inkscape:connector-curvature="0"
         id="path1014"
         d="m 14.306438,288.62044 h 2.01226"
         style="fill:none;stroke:#000000;stroke-width:1.5;stroke-linecap:round;stroke-linejoin:miter;stroke-miterlimit:4;stroke-dasharray:none;stroke-opacity:1" />
    </g>
    <g
       id="g2005"
       transform="translate(75.973213,-1.1054625)">
      <path
         style="fill:none;stroke:#000000;stroke-width:1.5;stroke-linecap:round;stroke-linejoin:miter;stroke-miterlimit:4;stroke-dasharray:none;stroke-opacity:1"
         d="m 15.253399,276.06087 c -1.711194,0.20641 -2.257544,-0.9598 -2.266603,-1.82674 -0.0014,-0.20652 -0.379056,-0.16938 -0.58629,-0.22646 -2.4707141,0 -4.550666,0.20366 -6.8986032,1.42487 -0.7949517,0.36247 -0.6043151,0.88019 -0.5571784,1.23367 l 0.3638209,2.45311 c 0.1304954,0.87417 0.6943134,0.61591 1.3136498,0.49072 l 1.5280939,-0.30767 c 0.782657,-0.19452 0.6146398,0.8717 0.6432034,1.13212 v 10.08443 c -0.051792,1.22886 0.409751,1.68426 1.3189426,1.68426 h 11.000039"
         id="path1018"
         inkscape:connector-curvature="0"
         sodipodi:nodetypes="ccccccccsccc" />
      <path
         sodipodi:nodetypes="ccccccccsc"
         inkscape:connector-curvature="0"
         id="path1020"
         d="m 21.20654,289.62704 v -9.19255 c 0.02868,-0.26042 -0.139434,-1.32661 0.643217,-1.13212 l 1.528094,0.30767 c 0.619336,0.12521 1.183382,0.38345 1.313636,-0.49072 l 0.363821,-2.45311 c 0.04704,-0.35348 0.2378,-0.8712 -0.557151,-1.23367 -2.347938,-1.22121 -4.42791,-1.42487 -6.898603,-1.42487 -0.207254,0.0571 -0.584382,0.0198 -0.586292,0.22646 -0.009,0.86694 -0.555415,2.03315 -2.266601,1.82674"
         style="fill:none;stroke:#000000;stroke-width:1.5;stroke-linecap:round;stroke-linejoin:miter;stroke-miterlimit:4;stroke-dasharray:none;stroke-opacity:1" />
    </g>
    <path
       style="fill:none;stroke:#000000;stroke-width:1.4895221;stroke-linecap:round;stroke-linejoin:miter;stroke-miterlimit:4;stroke-dasharray:none;stroke-opacity:1"
       d="m 189.32883,331.47535 c -2.05497,0.18936 -3.16993,-4.41217 -3.74364,-5.33353 -0.38748,-0.90251 -1.21648,-1.29642 -1.89392,0.21503 l -2.02647,4.08585 c -0.26704,0.61096 -0.66019,1.0407 -1.35251,1.0407 h -4.02174 c -2.02363,0 -1.93153,1.15263 -1.20766,1.80191 l 3.23052,3.37854 c 0.41003,0.41002 1.08533,0.88064 0.72942,2.14098 l -1.29879,4.84706 c -0.7116,2.14249 -0.092,2.19793 1.481,1.26363 l 4.26493,-2.46238 c 1.20665,-0.69664 1.40424,-0.63246 2.51678,0.0101"
       id="path1037"
       inkscape:connector-curvature="0"
       sodipodi:nodetypes="ccccccccccccc" />
    <path
       sodipodi:nodetypes="cccccccc"
       inkscape:connector-curvature="0"
       id="path1039"
       d="m 189.18862,331.48342 h 4.1502 c 1.8529,0 1.73895,1.28032 0.77477,2.22689 l -3.00862,2.95356 c -0.41001,0.41 -1.08533,0.88062 -0.72942,2.14096 l 1.29879,4.84706 c 0.71161,2.14252 0.0918,2.19795 -1.48098,1.26363 l -4.21279,-2.46238"
       style="fill:none;stroke:#000000;stroke-width:1.4895221;stroke-linecap:round;stroke-linejoin:miter;stroke-miterlimit:4;stroke-dasharray:none;stroke-opacity:1" />
    <g
       id="g2071"
       transform="translate(236.97765,-0.79063529)">
      <path
         style="fill:none;stroke:#000000;stroke-width:1.49814558;stroke-linecap:round;stroke-linejoin:miter;stroke-miterlimit:4;stroke-dasharray:none;stroke-opacity:1"
         d="M 21.57235,276.78527 H 7.2128579 c -0.9675974,0 -2.294382,0.0392 -2.294382,2.37056 v 7.48058 c 0,1.85851 1.5626097,2.15778 2.2441706,2.15778 H 22.31604 c 1.496256,0.0555 2.792257,-0.99656 2.792257,-2.45438 v -7.6527"
         id="path1053"
         inkscape:connector-curvature="0"
         sodipodi:nodetypes="cccccccc" />
      <path
         sodipodi:nodetypes="cc"
         inkscape:connector-curvature="0"
         id="path1014-9"
         d="M 8.7396653,284.94341 H 21.000948"
         style="fill:none;stroke:#000000;stroke-width:1.49814558;stroke-linecap:round;stroke-linejoin:miter;stroke-miterlimit:4;stroke-dasharray:none;stroke-opacity:1" />
    </g>
    <path
       sodipodi:nodetypes="cscsccc"
       inkscape:connector-curvature="0"
       id="path3506"
       d="m 60.978776,284.79671 c -3.189368,-0.2342 -5.731032,-2.76003 -5.985467,-5.94782 -0.254282,-3.18781 1.854522,-6.08467 4.966352,-6.82187 3.111816,-0.73718 6.296149,0.90568 7.498914,3.86881 0.975092,2.40227 0.411416,5.09 -1.299673,6.89544 -1.370093,1.45835 -0.641591,2.73026 0.157288,4.01433 l 3.319063,5.33334"
       style="opacity:1;fill:none;fill-opacity:1;stroke:#000000;stroke-width:1.5;stroke-linecap:round;stroke-miterlimit:4;stroke-dasharray:none;stroke-dashoffset:0;stroke-opacity:1" />
    <g
       id="g2067"
       transform="translate(205.47707,-0.044798)">
      <path
         style="fill:none;stroke:#000000;stroke-width:1.5;stroke-linecap:round;stroke-linejoin:miter;stroke-miterlimit:4;stroke-dasharray:none;stroke-opacity:1"
         d="m 21.22788,286.88356 2.289288,-1.79547 c 0.588709,-0.46173 0.997726,-1.28831 0.123157,-2.40323 l -7.338734,-9.35723 c -0.654164,-0.83404 -1.362234,-1.13567 -2.668301,-1.29355 l -5.6708251,-0.14011 c -1.6046135,0.006 -1.9480665,0.76356 -2.2046328,2.21108 l -0.7756546,5.78847 -0.0868,0.64639"
         id="path3508"
         inkscape:connector-curvature="0"
         sodipodi:nodetypes="ccccccccc" />
      <path
         id="path3510"
         style="opacity:1;fill:none;fill-opacity:1;stroke:#000000;stroke-width:1.5;stroke-linecap:round;stroke-miterlimit:4;stroke-dasharray:none;stroke-dashoffset:0;stroke-opacity:1"
         sodipodi:type="arc"
         sodipodi:cx="-217.74347"
         sodipodi:cy="-172.10526"
         sodipodi:rx="2.3093455"
         sodipodi:ry="2.3093455"
         sodipodi:start="5.2417462"
         sodipodi:end="4.0228757"
         d="m -216.5773,-174.09852 a 2.3093455,2.3093455 0 0 1 1.08515,2.50768 2.3093455,2.3093455 0 0 1 -2.06659,1.78753 2.3093455,2.3093455 0 0 1 -2.3252,-1.43509 2.3093455,2.3093455 0 0 1 0.67135,-2.64864"
         transform="rotate(-130.4787)"
         sodipodi:open="true" />
      <path
         sodipodi:nodetypes="cccc"
         inkscape:connector-curvature="0"
         id="path3512"
         d="m 21.461739,286.70015 -6.536902,5.12682 c -0.588731,0.46172 -1.48897,0.66195 -2.363386,-0.45297 L 6.32787,283.4259"
         style="fill:none;stroke:#000000;stroke-width:1.5;stroke-linecap:round;stroke-linejoin:miter;stroke-miterlimit:4;stroke-dasharray:none;stroke-opacity:1" />
    </g>
    <g
       id="g2092"
       transform="matrix(0.99747031,0,0,0.99747031,315.41599,11.327884)">
      <path
         sodipodi:nodetypes="ccccccccc"
         inkscape:connector-curvature="0"
         id="path3586"
         d="m 4.8920091,274.4949 v 11.50373 c 0.1115592,1.55154 0.3482251,3.50533 2.9270421,3.39251 H 22.31219 c 2.276415,0 2.795873,-1.46356 2.795873,-2.5745 v -12.07467 c 0,-3.03781 -2.826574,-2.8369 -2.826574,-2.8369 H 8.227962 c -0.5637498,0.0239 -3.3321957,-0.43713 -3.3321957,2.54827"
         style="fill:none;stroke:#000000;stroke-width:1.5;stroke-linecap:round;stroke-linejoin:miter;stroke-miterlimit:4;stroke-dasharray:none;stroke-opacity:1" />
      <path
         style="fill:none;stroke:#000000;stroke-width:1.5;stroke-linecap:round;stroke-linejoin:miter;stroke-miterlimit:4;stroke-dasharray:none;stroke-opacity:1"
         d="m 12.950284,280.69151 v 8.53277"
         id="path3588"
         inkscape:connector-curvature="0"
         sodipodi:nodetypes="cc" />
      <path
         inkscape:connector-curvature="0"
         id="path3590"
         d="M 24.275047,279.33612 H 14.046172"
         style="fill:none;stroke:#000000;stroke-width:1.5;stroke-linecap:round;stroke-linejoin:miter;stroke-miterlimit:4;stroke-dasharray:none;stroke-opacity:1"
         sodipodi:nodetypes="cc" />
      <path
         style="fill:none;stroke:#000000;stroke-width:1.5;stroke-linecap:round;stroke-linejoin:miter;stroke-miterlimit:4;stroke-dasharray:none;stroke-opacity:1"
         d="m 9.2524281,282.56263 c 6.7580169,-3.79548 2.4637679,-8.47275 0.4333035,-7.96569 -0.4207964,0.10501 -1.1564803,0.78872 -0.7481548,1.72055 3.0819172,7.03337 9.3818842,0.43441 7.1422682,-1.32961 -2.239653,-1.76405 -5.776116,5.21345 -0.04407,7.31858"
         id="path3592"
         inkscape:connector-curvature="0"
         sodipodi:nodetypes="csszc" />
      <path
         sodipodi:nodetypes="cc"
         style="fill:none;stroke:#000000;stroke-width:1.5;stroke-linecap:round;stroke-linejoin:miter;stroke-miterlimit:4;stroke-dasharray:none;stroke-opacity:1"
         d="M 11.714513,279.33612 H 5.4476954"
         id="path3594"
         inkscape:connector-curvature="0" />
      <path
         sodipodi:nodetypes="cc"
         inkscape:connector-curvature="0"
         id="path3596"
         d="m 12.950284,272.367 v 3.53808"
         style="fill:none;stroke:#000000;stroke-width:1.5;stroke-linecap:round;stroke-linejoin:miter;stroke-miterlimit:4;stroke-dasharray:none;stroke-opacity:1" />
    </g>
    <path
       sodipodi:nodetypes="csssccc"
       inkscape:connector-curvature="0"
       id="path1877"
       d="m -635.80633,279.25153 c 5.22313,0 10.50839,-0.86705 11.78766,-2.53818 6.97581,-9.11261 -1.98115,-10.81363 -1.91939,-6.33314 0.0542,3.93148 1.3718,5.41969 2.03487,7.19517 1.1249,3.0121 2.4488,5.15453 2.4488,10.855 -0.15342,2.13244 -0.53567,7.81055 -6.28224,7.55915 h -7.6639"
       style="fill:none;stroke:#000000;stroke-width:2;stroke-linecap:round;stroke-linejoin:miter;stroke-miterlimit:4;stroke-dasharray:none;stroke-opacity:1" />
    <rect
       style="opacity:1;fill:#000000;fill-opacity:1;stroke:none;stroke-width:0.90047848;stroke-linecap:round;stroke-miterlimit:4;stroke-dasharray:none;stroke-dashoffset:0;stroke-opacity:1"
       id="rect1969"
       width="4.1694031"
       height="4.1694031"
       x="59.247768"
       y="215.78423" />
    <rect
       y="215.78423"
       x="85.078362"
       height="4.1694031"
       width="4.1694031"
       id="rect1973"
       style="opacity:1;fill:#000000;fill-opacity:1;stroke:none;stroke-width:0.90047848;stroke-linecap:round;stroke-miterlimit:4;stroke-dasharray:none;stroke-dashoffset:0;stroke-opacity:1" />
    <rect
       y="241.70442"
       x="59.247768"
       height="4.1694031"
       width="4.1694031"
       id="rect1975"
       style="opacity:1;fill:#000000;fill-opacity:1;stroke:none;stroke-width:0.90047848;stroke-linecap:round;stroke-miterlimit:4;stroke-dasharray:none;stroke-dashoffset:0;stroke-opacity:1" />
    <rect
       style="opacity:1;fill:#000000;fill-opacity:1;stroke:none;stroke-width:0.90047848;stroke-linecap:round;stroke-miterlimit:4;stroke-dasharray:none;stroke-dashoffset:0;stroke-opacity:1"
       id="rect1977"
       width="4.1694031"
       height="4.1694031"
       x="85.078362"
       y="241.70442" />
    <g
       id="g2024"
       transform="translate(175.31101,-1.341037)">
      <path
         sodipodi:nodetypes="cc"
         inkscape:connector-curvature="0"
         id="path3516"
         d="m 9.2060229,272.58602 c -8.0562458,4.77001 0.298261,16.35094 5.7736421,19.51216"
         style="opacity:1;fill:none;fill-opacity:1;stroke:#000000;stroke-width:1.5;stroke-linecap:round;stroke-miterlimit:4;stroke-dasharray:none;stroke-dashoffset:0;stroke-opacity:1" />
      <path
         transform="rotate(-112.03132)"
         style="opacity:1;fill:none;fill-opacity:1;stroke:#000000;stroke-width:1.5;stroke-linecap:round;stroke-miterlimit:4;stroke-dasharray:none;stroke-dashoffset:0;stroke-opacity:1"
         id="path3518"
         sodipodi:type="arc"
         sodipodi:cx="-263.18649"
         sodipodi:cy="-90.332695"
         sodipodi:rx="2.79756"
         sodipodi:ry="2.79756"
         sodipodi:start="2.0493618"
         sodipodi:end="5.0756259"
         sodipodi:open="true"
         d="m -264.47479,-87.849423 a 2.79756,2.79756 0 0 1 -1.26509,-3.626308 2.79756,2.79756 0 0 1 3.54737,-1.471988" />
      <path
         style="fill:none;stroke:#000000;stroke-width:1.5;stroke-linecap:round;stroke-linejoin:miter;stroke-miterlimit:4;stroke-dasharray:none;stroke-opacity:1"
         d="m 17.781855,277.98147 c 0.228849,-5.07226 -5.389777,-7.23265 -8.4410087,-5.47103"
         id="path3520"
         inkscape:connector-curvature="0"
         sodipodi:nodetypes="cc" />
      <path
         sodipodi:nodetypes="cc"
         inkscape:connector-curvature="0"
         id="path3522"
         d="m 12.189237,277.88954 c -0.258189,-4.8139 5.604477,-6.83334 8.488334,-5.3791"
         style="fill:none;stroke:#000000;stroke-width:1.5;stroke-linecap:round;stroke-linejoin:miter;stroke-miterlimit:4;stroke-dasharray:none;stroke-opacity:1" />
      <path
         style="opacity:1;fill:none;fill-opacity:1;stroke:#000000;stroke-width:1.5;stroke-linecap:round;stroke-miterlimit:4;stroke-dasharray:none;stroke-dashoffset:0;stroke-opacity:1"
         d="m 20.832806,272.58602 c 6.947096,4.11327 1.88189,16.16005 -5.510208,19.60315"
         id="path3524"
         inkscape:connector-curvature="0"
         sodipodi:nodetypes="cc" />
    </g>
  </g>
</svg>
