<svg xmlns="http://www.w3.org/2000/svg" width="130.503" height="48.643" viewBox="0 0 130.503 48.643">
  <g id="layer1" transform="translate(-14.227 -16.803)">
    <path id="path827" d="M122.544,65.418a3.826,3.826,0,0,1-3.371-4.083,3.762,3.762,0,0,1,1.144-2.459,3.466,3.466,0,0,1,1-.707,3.775,3.775,0,0,1,1.936-.375,3.829,3.829,0,1,1-.707,7.623Zm-90.249-.055a2.625,2.625,0,0,1-1.462-.677,2.744,2.744,0,0,1-.8-1.466A65.944,65.944,0,0,0,27.1,54.462c-2.279-5.325-5.551-10.015-11.377-16.308a11.362,11.362,0,0,1-1.06-1.192,2.558,2.558,0,0,1,1.623-3.93l.184-.038.08-.369a14.021,14.021,0,0,1,2.779-5.741c.212-.256.839-.893,1.247-1.269a13.477,13.477,0,0,1,7.44-3.673,11.649,11.649,0,0,1,3.123.064,12.623,12.623,0,0,1,6.82,3.625,16.032,16.032,0,0,1,4.376,8.332c.025.138.049.253.052.257s.177-.064.384-.149c.934-.384,3.141-1.239,3.2-1.239s.043-.073-.033-.308a14.536,14.536,0,0,1-.521-2.4,14.832,14.832,0,0,1-.043-3.041,11.051,11.051,0,0,1,4.068-7.631,12.2,12.2,0,0,1,4.973-2.366,7.287,7.287,0,0,1,1.849-.176,6.213,6.213,0,0,1,1.477.111,7.7,7.7,0,0,1,4.634,2.715A7.915,7.915,0,0,1,64.064,23.6a9.729,9.729,0,0,1,.052,1.789,9.306,9.306,0,0,1-4.158,6.669,27.916,27.916,0,0,1-5.908,3.151c-.227.094-.418.175-.424.18a6.93,6.93,0,0,0,.959.825,5.763,5.763,0,0,0,2.49,1.033,7.258,7.258,0,0,0,1.61.01,9.978,9.978,0,0,0,3.536-1.216,13.6,13.6,0,0,0,5.7-6.993,9.587,9.587,0,0,0,.3-1.117,4.075,4.075,0,0,1,.121-.446c.035-.1.109-.352.163-.568a14.194,14.194,0,0,1,2.961-5.906,16.506,16.506,0,0,1,1.379-1.376,11.99,11.99,0,0,1,3.33-2.017,11.768,11.768,0,0,1,3.106-.781,19.374,19.374,0,0,1,2.323-.011,11.425,11.425,0,0,1,3.061.747,11.564,11.564,0,0,1,3.161,1.9,13.835,13.835,0,0,1,1.732,1.792l.113.151.265.025a2.554,2.554,0,0,1,1.572.684,2.591,2.591,0,0,1,.758,1.363,2.8,2.8,0,0,1,.026.884c-.034.351-.06.774-.1,1.654a62.923,62.923,0,0,1-.9,8.193A38.055,38.055,0,0,1,89.035,42.2a2.054,2.054,0,0,0-.08.224s.146-.054.318-.128a10.385,10.385,0,0,0,4.4-3.337,12.181,12.181,0,0,0,1.787-3.534,8.848,8.848,0,0,0,.351-1.244c.016-.114.055-.383.085-.6a16.74,16.74,0,0,1,.5-2.289,12.62,12.62,0,0,1,9.975-9.263,11.687,11.687,0,0,1,3.254-.055,11.382,11.382,0,0,1,5.962,2.663,11.925,11.925,0,0,1,2.155,2.421l.087.135h.207a2.552,2.552,0,0,1,2.289,1.383,2.408,2.408,0,0,1,.278,1.167,6.729,6.729,0,0,1-.22,1.463c-.288,1.4-.369,1.809-.487,2.449a47.656,47.656,0,0,0-.8,6.4c-.032.631-.032,2.089,0,2.633a10.111,10.111,0,0,0,1.238,4.852,4.435,4.435,0,0,0,.567.686,2.455,2.455,0,0,1,.61.986,2.545,2.545,0,0,1-.617,2.606,2.469,2.469,0,0,1-1.926.743,2.593,2.593,0,0,1-1.885-.934,9.192,9.192,0,0,1-1.407-1.922,13.393,13.393,0,0,1-1.371-4.036c-.026-.15-.051-.276-.055-.281a2.344,2.344,0,0,0-.263.166,11.513,11.513,0,0,1-8.144,1.8,12.507,12.507,0,0,1-7.614-4.075c-.2-.231-.64-.794-.7-.9-.016-.027-.033-.017-.091.054a16.133,16.133,0,0,1-7.709,5.136,27.7,27.7,0,0,1-3.494.894l-.318.059-.268.457c-1.007,1.712-2.328,3.737-3.249,4.976a21.07,21.07,0,0,1-2.488,2.9,12.676,12.676,0,0,1-5.209,3.1,8.471,8.471,0,0,1-4.326.125,6.668,6.668,0,0,1-5.176-6.409A7.63,7.63,0,0,1,66.1,49.87a7.938,7.938,0,0,1,2.751-3.057c1.733-1.16,3.911-1.832,7.366-2.273.835-.106,1.3-.155,4.034-.425.668-.066,1.471-.15,1.784-.185s.581-.065.6-.065a23.063,23.063,0,0,0,1.021-2.082.343.343,0,0,0-.1.026,12.266,12.266,0,0,1-1.437.367,10.811,10.811,0,0,1-2.229.2,11.308,11.308,0,0,1-2.47-.248,12.507,12.507,0,0,1-6.431-3.464,11.3,11.3,0,0,1-1.526-1.975.44.44,0,0,0-.073-.108,2.4,2.4,0,0,0-.171.191,18.9,18.9,0,0,1-2.516,2.4,15.224,15.224,0,0,1-5.43,2.767,12.4,12.4,0,0,1-3.832.468c-3.327-.139-6.249-1.753-8.69-4.8a2.179,2.179,0,0,0-.232-.267c-.028,0-1.638.605-2.4.9-1.436.559-2.608,1.059-3.691,1.575l-.231.11-.092.333a12.714,12.714,0,0,1-2.056,4.2,10.218,10.218,0,0,1-1.98,2.215,4.9,4.9,0,0,1-2.967,1.1,3.6,3.6,0,0,1-1.2-.2,3.545,3.545,0,0,1-1.738-1.263,4.366,4.366,0,0,1-.519-1.011,4.834,4.834,0,0,1,.887-4.3A9.626,9.626,0,0,1,33.366,40c.2-.214.4-.434.45-.489.122-.138.764-.732,1.084-1a21.176,21.176,0,0,1,2.4-1.728.965.965,0,0,0,.159-.111,6.663,6.663,0,0,0-.064-1.224,10.89,10.89,0,0,0-1.354-3.989,13.053,13.053,0,0,0-.943-1.38,11.677,11.677,0,0,0-1.217-1.27,7.548,7.548,0,0,0-3.1-1.667,5.385,5.385,0,0,0-1.585-.16,5.5,5.5,0,0,0-1.766.3,9.707,9.707,0,0,0-3.718,2.4,5.589,5.589,0,0,0-.9,1.083,8.465,8.465,0,0,0-1.374,3.6,7.269,7.269,0,0,0-.01,1.246,5.388,5.388,0,0,0,.442,1.593,1.992,1.992,0,0,0,.451.652A62.887,62.887,0,0,1,29.328,47.5a56.588,56.588,0,0,1,5.488,13.831,5.043,5.043,0,0,1,.306,1.385,2.542,2.542,0,0,1-1.742,2.527,2.775,2.775,0,0,1-1.085.116ZM72.634,55.179a6.652,6.652,0,0,0,3.46-1.746,16.539,16.539,0,0,0,2.332-2.682c.439-.6.98-1.4.963-1.412s-.842.075-1.717.171c-3.6.4-5.54.989-6.536,2a2.827,2.827,0,0,0-.516.743,2.52,2.52,0,0,0-.3,1.212,1.744,1.744,0,0,0,.262,1,2.115,2.115,0,0,0,2.055.718Zm35.743-12.851c3.1-.355,5.182-2.7,5.852-6.564a10.223,10.223,0,0,0,.2-2.041,6.149,6.149,0,0,0-1.537-4.6,8.152,8.152,0,0,0-.894-.823,6.43,6.43,0,0,0-2.911-1.246,8.544,8.544,0,0,0-1.585-.023,6.46,6.46,0,0,0-2.223.665A8.366,8.366,0,0,0,101,34.028a12.538,12.538,0,0,0-.142,3.242,5.2,5.2,0,0,0,1.073,2.459,8.07,8.07,0,0,0,1.159,1.126,7.6,7.6,0,0,0,3.741,1.474,9.784,9.784,0,0,0,1.546,0Zm-27.9-5.081c2.865-.259,4.882-2.131,5.776-5.358a14.3,14.3,0,0,0,.4-2,6.728,6.728,0,0,0,.061-1.262,8.175,8.175,0,0,0-.1-1.632,5.451,5.451,0,0,0-1.531-3.086,6.486,6.486,0,0,0-2.305-1.586,6.408,6.408,0,0,0-5.6.474,8.619,8.619,0,0,0-3.922,6.4,12.384,12.384,0,0,0-.1,2.959,5.111,5.111,0,0,0,.8,2.089,5.254,5.254,0,0,0,.772.936,7.375,7.375,0,0,0,3.7,1.936,9.008,9.008,0,0,0,.983.138,9.817,9.817,0,0,0,1.066-.008ZM51.51,30.734a26.345,26.345,0,0,0,5.148-2.59,6.937,6.937,0,0,0,1.961-1.952,2.769,2.769,0,0,0-.067-3.027,2.622,2.622,0,0,0-1.793-1.13,4.942,4.942,0,0,0-1.012,0A6.709,6.709,0,0,0,53.11,23.1a5.923,5.923,0,0,0-1.7,1.693,7.344,7.344,0,0,0-.575,1.145,7.9,7.9,0,0,0-.143,4.622c.05.192.1.37.1.4s.021.049.031.049.321-.122.689-.27ZM126.428,55.9a2.587,2.587,0,0,1-1.492-.753,2.548,2.548,0,0,1-.7-1.36,3,3,0,0,1-.025-.432,7.139,7.139,0,0,1,.252-1.547c.765-3.814,1.838-9.671,3.135-17.125.43-2.471.437-2.508.569-3.09.922-4.05,2.847-7.058,5.522-8.627a10.223,10.223,0,0,1,1.254-.6,8.122,8.122,0,0,1,1.73-.431,9.554,9.554,0,0,1,1.785,0,7.3,7.3,0,0,1,1.805.481,7.8,7.8,0,0,1,1.633.958,7.541,7.541,0,0,1,2.7,4.672,9.934,9.934,0,0,1,.043,2.945,13.276,13.276,0,0,1-.967,3.405,19.856,19.856,0,0,1-1.934,3.421,159.648,159.648,0,0,1-12.558,16.676,3.9,3.9,0,0,1-1.3,1.159,2.6,2.6,0,0,1-1.458.244Zm5.786-13.371c1.023-1.387,2.182-3.009,3.2-4.483.929-1.343,2.322-3.418,2.681-3.993a9.819,9.819,0,0,0,1.469-3.645,5.834,5.834,0,0,0,.012-1.425,2.439,2.439,0,0,0-.691-1.437,1.465,1.465,0,0,0-.428-.333,2.073,2.073,0,0,0-1.633-.088,3.731,3.731,0,0,0-.911.493c-1.31.982-2.317,2.924-2.839,5.477-.035.174-.226,1.246-.424,2.383-.513,2.948-1.324,7.526-1.466,8.277a1.327,1.327,0,0,0-.022.151q0,.05,1.053-1.378Z" fill="#4d9ecc"/>
  </g>
</svg>
