<?xml version="1.0" encoding="UTF-8" standalone="no"?>
<!-- Created with Inkscape (http://www.inkscape.org/) -->

<svg
   xmlns:dc="http://purl.org/dc/elements/1.1/"
   xmlns:cc="http://creativecommons.org/ns#"
   xmlns:rdf="http://www.w3.org/1999/02/22-rdf-syntax-ns#"
   xmlns:svg="http://www.w3.org/2000/svg"
   xmlns="http://www.w3.org/2000/svg"
   xmlns:sodipodi="http://sodipodi.sourceforge.net/DTD/sodipodi-0.dtd"
   xmlns:inkscape="http://www.inkscape.org/namespaces/inkscape"
   width="210mm"
   height="103.333mm"
   viewBox="0 0 210 103.333"
   version="1.1"
   id="svg25640"
   inkscape:version="0.92.4 (5da689c313, 2019-01-14)"
   sodipodi:docname="logobranca.svg">
  <defs
     id="defs25634" />
  <sodipodi:namedview
     id="base"
     pagecolor="#ffffff"
     bordercolor="#666666"
     borderopacity="1.0"
     inkscape:pageopacity="0.0"
     inkscape:pageshadow="2"
     inkscape:zoom="0.49497475"
     inkscape:cx="560.36925"
     inkscape:cy="404.33143"
     inkscape:document-units="mm"
     inkscape:current-layer="layer1"
     showgrid="false"
     inkscape:snap-bbox="true"
     inkscape:bbox-paths="true"
     inkscape:bbox-nodes="true"
     showguides="true"
     inkscape:guide-bbox="true"
     inkscape:window-width="1366"
     inkscape:window-height="705"
     inkscape:window-x="-8"
     inkscape:window-y="-8"
     inkscape:window-maximized="1">
    <sodipodi:guide
       position="0,0"
       orientation="0,793.70079"
       id="guide26604"
       inkscape:locked="false" />
    <sodipodi:guide
       position="210,0"
       orientation="-390.54992,0"
       id="guide26606"
       inkscape:locked="false" />
    <sodipodi:guide
       position="210,103.333"
       orientation="0,-793.70079"
       id="guide26608"
       inkscape:locked="false" />
    <sodipodi:guide
       position="0,103.333"
       orientation="390.54992,0"
       id="guide26610"
       inkscape:locked="false" />
  </sodipodi:namedview>
  <metadata
     id="metadata25637">
    <rdf:RDF>
      <cc:Work
         rdf:about="">
        <dc:format>image/svg+xml</dc:format>
        <dc:type
           rdf:resource="http://purl.org/dc/dcmitype/StillImage" />
        <dc:title></dc:title>
      </cc:Work>
    </rdf:RDF>
  </metadata>
  <g
     inkscape:label="Camada 1"
     inkscape:groupmode="layer"
     id="layer1"
     transform="translate(0,-193.667)">
    <path
       clip-path="none"
       style="fill:#ffffff;stroke-width:0.02833144"
       d="m 161.11391,276.96232 c -1.372,-0.16831 -2.57466,-0.85891 -3.40402,-1.95472 -0.71913,-0.9502 -1.07087,-2.15003 -0.98509,-3.36019 0.0868,-1.22621 0.6081,-2.34605 1.48947,-3.20074 0.44338,-0.42993 0.77266,-0.66327 1.2989,-0.9204 0.78471,-0.38345 1.59835,-0.5412 2.52149,-0.48886 2.1746,0.12319 4.05033,1.72886 4.52889,3.87676 0.24685,1.10786 0.11536,2.24391 -0.37924,3.27484 -0.90834,1.89363 -2.98448,3.02919 -5.0704,2.77331 z m -117.498361,-0.0716 c -0.691352,-0.0781 -1.388274,-0.40072 -1.902612,-0.88107 -0.515366,-0.48131 -0.772283,-0.95451 -1.036262,-1.90866 -1.378694,-4.98325 -2.470713,-8.23859 -3.825371,-11.40339 -2.967574,-6.93302 -7.22744,-13.03864 -14.813207,-21.23171 -1.175087,-1.26917 -1.24121,-1.3435 -1.380236,-1.55187 -1.317567,-1.97467 -0.21762,-4.63841 2.112828,-5.11672 l 0.240034,-0.0493 0.103406,-0.48134 c 0.567507,-2.63609 1.91465,-5.41943 3.617422,-7.47399 0.27649,-0.33362 1.09223,-1.16323 1.62453,-1.65215 2.976307,-2.73395 6.243782,-4.34713 9.685842,-4.782 1.243506,-0.15707 2.768549,-0.1259 4.065546,0.0831 3.209018,0.51706 6.330587,2.17618 8.879964,4.71978 2.909086,2.90246 4.934183,6.75843 5.697239,10.84799 0.03344,0.1792 0.06447,0.32948 0.0689,0.33395 0.005,0.005 0.229669,-0.083 0.500487,-0.19416 1.215915,-0.49954 4.088726,-1.61301 4.161629,-1.61301 0.06608,0 0.05571,-0.0952 -0.04322,-0.40144 -0.279956,-0.86581 -0.542232,-2.07148 -0.678448,-3.11871 -0.152292,-1.17077 -0.175139,-2.78714 -0.05601,-3.95935 0.408344,-4.01725 2.268214,-7.5061 5.296098,-9.93469 1.85444,-1.48742 4.253328,-2.62904 6.473994,-3.08097 0.953144,-0.19398 1.31115,-0.22796 2.407924,-0.22869 1.019056,-6.4e-4 1.140765,0.007 1.923585,0.14426 2.359138,0.40918 4.520209,1.67493 6.033032,3.53362 1.17555,1.44428 1.918226,3.13966 2.204962,5.03344 0.08845,0.58418 0.120953,1.70033 0.068,2.3294 -0.277628,3.28923 -2.114077,6.23514 -5.413112,8.68335 -1.878375,1.39394 -4.459243,2.77062 -7.691984,4.10306 -0.296073,0.12209 -0.54468,0.22734 -0.552477,0.23398 -0.03596,0.0306 0.803471,0.75237 1.249077,1.07394 0.97989,0.70709 2.089004,1.16723 3.241475,1.34473 0.525409,0.0809 1.543024,0.0873 2.096529,0.0132 1.544455,-0.20693 3.185536,-0.77132 4.603849,-1.58334 3.232348,-1.85056 6.225891,-5.52361 7.419694,-9.1039 0.151034,-0.45294 0.267525,-0.89149 0.386303,-1.45421 0.0408,-0.19358 0.111988,-0.45495 0.158266,-0.58081 0.04604,-0.12589 0.141545,-0.45833 0.211879,-0.73881 0.756427,-3.01599 2.013905,-5.52419 3.854947,-7.68884 0.396578,-0.46629 1.346317,-1.41458 1.794663,-1.79196 1.367522,-1.15104 2.783549,-2.00876 4.335116,-2.62588 1.3378,-0.53208 2.5553,-0.83808 4.04352,-1.01622 0.53234,-0.0637 2.48741,-0.0728 3.02476,-0.0141 1.45065,0.15863 2.68151,0.45903 3.98586,0.97281 1.44823,0.57048 2.879,1.42999 4.11608,2.47273 0.72929,0.61472 1.78964,1.71202 2.25403,2.33259 l 0.14748,0.19706 0.34458,0.0317 c 0.81732,0.0752 1.48044,0.364 2.04593,0.89098 0.4959,0.46219 0.86259,1.12174 0.98611,1.77375 0.0725,0.38336 0.0813,0.67194 0.0348,1.15054 -0.0445,0.45687 -0.0783,1.00786 -0.13188,2.1532 -0.17391,3.71319 -0.45633,6.27465 -1.17608,10.66678 -0.56573,3.45224 -1.48063,6.69733 -2.92743,10.38347 -0.0612,0.15582 -0.10813,0.28683 -0.10427,0.2911 0.004,0.005 0.19046,-0.0702 0.41472,-0.16556 2.44612,-1.04 4.3145,-2.45619 5.73268,-4.34521 0.9636,-1.28355 1.76183,-2.86307 2.32548,-4.60175 0.3039,-0.9373 0.41718,-1.33802 0.45754,-1.61872 0.0212,-0.14803 0.0712,-0.49864 0.11063,-0.77911 0.13172,-0.93466 0.36774,-2.01507 0.65118,-2.98098 1.90272,-6.48394 6.82058,-11.05051 12.98797,-12.06024 1.34351,-0.21996 2.84857,-0.24496 4.23555,-0.0703 2.83589,0.35702 5.54476,1.56683 7.76281,3.46696 1.07906,0.92439 2.13944,2.11615 2.80483,3.15236 l 0.11335,0.17647 0.26918,7.9e-4 c 1.27587,0.004 2.41015,0.68931 2.98048,1.80115 0.25377,0.49474 0.36263,0.95116 0.36263,1.52047 0,0.43228 -0.0432,0.71897 -0.28672,1.90522 -0.37458,1.82421 -0.47992,2.35392 -0.63388,3.18728 -0.58142,3.14713 -0.90869,5.77839 -1.036,8.32944 -0.0408,0.82245 -0.0406,2.71916 0.001,3.4281 0.16425,2.81247 0.70629,4.93649 1.61232,6.31792 0.19104,0.29125 0.37815,0.5174 0.73852,0.89244 0.39682,0.41301 0.62799,0.78648 0.79454,1.28356 0.39787,1.1876 0.0851,2.50814 -0.80365,3.39365 -0.689,0.68646 -1.51894,1.00657 -2.50756,0.96718 -0.94409,-0.0376 -1.67989,-0.40231 -2.45383,-1.21627 -0.72226,-0.75958 -1.30765,-1.55931 -1.83146,-2.50194 -0.80268,-1.44446 -1.4435,-3.33133 -1.78473,-5.25512 -0.0344,-0.19479 -0.0667,-0.35927 -0.0714,-0.3655 -0.005,-0.006 -0.15874,0.0907 -0.34206,0.2157 -3.01949,2.05694 -6.76432,2.88432 -10.60348,2.34272 -3.8404,-0.54179 -7.50658,-2.50379 -9.913,-5.30504 -0.25776,-0.30009 -0.83237,-1.03451 -0.91217,-1.16594 -0.0207,-0.0345 -0.0432,-0.0212 -0.11772,0.0704 -2.52713,3.09908 -5.7797,5.2663 -10.03641,6.68738 -1.34394,0.44866 -3.05199,0.88573 -4.54979,1.16423 l -0.41343,0.0768 -0.34937,0.59432 c -1.31064,2.22939 -3.03113,4.86476 -4.22984,6.47909 -1.24983,1.68323 -2.27513,2.87729 -3.23915,3.77231 -2.22315,2.06409 -4.38906,3.35334 -6.781269,4.0365 -1.901544,0.54303 -3.850142,0.59973 -5.633191,0.16383 -2.609587,-0.63797 -4.68342,-2.26439 -5.812752,-4.55868 -0.604366,-1.2279 -0.891333,-2.40049 -0.92654,-3.78637 -0.04453,-1.7504 0.317832,-3.30398 1.155362,-4.9539 0.81848,-1.61236 1.990524,-2.91467 3.581801,-3.97982 2.255944,-1.5101 5.091654,-2.38504 9.590189,-2.95899 1.08757,-0.13879 1.69383,-0.20279 5.25111,-0.55453 0.87023,-0.0862 1.91565,-0.19462 2.32319,-0.24125 0.40754,-0.0465 0.75685,-0.0847 0.77628,-0.0847 0.0556,0 1.36749,-2.67227 1.33012,-2.70962 -0.006,-0.006 -0.0671,0.009 -0.13568,0.0336 -0.40026,0.14267 -1.30045,0.37251 -1.86974,0.47743 -1.04788,0.19308 -1.7729,0.25677 -2.90142,0.25491 -1.20623,-0.002 -2.04116,-0.0857 -3.21562,-0.32306 -3.192406,-0.64466 -6.208091,-2.26891 -8.373181,-4.50981 -0.754462,-0.78086 -1.583832,-1.85434 -1.986233,-2.57079 -0.04442,-0.0791 -0.08724,-0.14281 -0.09489,-0.14166 -0.0071,0.001 -0.108271,0.11274 -0.22308,0.24788 -0.876293,1.03103 -2.125642,2.22444 -3.275846,3.12916 -2.166198,1.70385 -4.407192,2.846 -7.068709,3.60264 -1.629608,0.46329 -3.374356,0.67625 -4.989024,0.60894 -4.332064,-0.18058 -8.136039,-2.28281 -11.313133,-6.25209 -0.152796,-0.19089 -0.288981,-0.34707 -0.302682,-0.34707 -0.03606,0 -2.132884,0.78789 -3.127985,1.17534 -1.86944,0.72787 -3.394694,1.3787 -4.804969,2.05033 l -0.300234,0.14298 -0.120712,0.43346 c -0.554945,1.99309 -1.474756,3.87367 -2.677544,5.4743 -1.272861,1.69387 -1.795862,2.27906 -2.577866,2.88437 -1.210515,0.93698 -2.557235,1.43833 -3.863671,1.43833 -0.561835,0 -1.027145,-0.0757 -1.566093,-0.2545 -0.907531,-0.30121 -1.67373,-0.85785 -2.262532,-1.64373 -0.230524,-0.3077 -0.550523,-0.93066 -0.676695,-1.31738 -0.56938,-1.74543 -0.152725,-3.76251 1.155776,-5.59526 0.281698,-0.39457 0.552204,-0.71587 1.105598,-1.31322 0.257592,-0.27806 0.521067,-0.56491 0.585518,-0.63745 0.158982,-0.17897 0.995565,-0.95314 1.410194,-1.30498 0.858574,-0.72854 2.207963,-1.70081 3.122506,-2.24981 0.0953,-0.0572 0.188265,-0.12195 0.206327,-0.14372 0.04302,-0.0518 -0.006,-0.99407 -0.08311,-1.59418 -0.229054,-1.78523 -0.834105,-3.56812 -1.762841,-5.19434 -0.286392,-0.50148 -0.847432,-1.32245 -1.227015,-1.7955 -0.410681,-0.51181 -1.125514,-1.25787 -1.585092,-1.65438 -1.259926,-1.08696 -2.636968,-1.82738 -4.037239,-2.17076 -0.715519,-0.17548 -1.227348,-0.22715 -2.062793,-0.20826 -0.869402,0.0196 -1.457087,0.12021 -2.300247,0.39315 -1.630635,0.5281 -3.245998,1.57155 -4.840509,3.12673 -0.534405,0.52122 -0.802473,0.84293 -1.174995,1.41011 -0.985481,1.50033 -1.607637,3.12846 -1.789445,4.68279 -0.04976,0.42477 -0.05611,1.22444 -0.0131,1.62145 0.07404,0.68152 0.277044,1.41281 0.575858,2.07417 0.153118,0.33886 0.178484,0.37553 0.587684,0.84995 3.857878,4.47236 6.825563,8.55446 9.130152,12.55865 2.938118,5.10499 5.051752,10.43157 7.145108,18.00639 0.37231,1.34713 0.380208,1.38298 0.398411,1.80362 0.06407,1.4826 -0.844602,2.80096 -2.267519,3.28956 -0.400395,0.13751 -0.984211,0.20017 -1.413397,0.15178 z m 52.519035,-13.25941 c 1.427914,-0.16356 2.962587,-0.93763 4.505866,-2.27267 0.87548,-0.75734 1.91966,-1.95815 3.03612,-3.49156 0.5719,-0.78542 1.2761,-1.81809 1.25347,-1.83803 -0.0112,-0.0101 -1.09611,0.0974 -2.23558,0.22322 -4.692108,0.51727 -7.212494,1.28782 -8.509219,2.60143 -0.259043,0.26242 -0.490615,0.59585 -0.671759,0.9671 -0.288175,0.59066 -0.395026,1.01755 -0.395026,1.57786 0,0.53016 0.106277,0.93389 0.341667,1.29811 0.458107,0.70883 1.4918,1.07004 2.674461,0.93454 z m 46.535566,-16.72983 c 4.02974,-0.46204 6.7464,-3.50918 7.61984,-8.54682 0.20012,-1.15422 0.25239,-1.7003 0.25437,-2.65686 0.006,-2.70313 -0.56865,-4.4231 -2.00078,-5.99211 -0.3032,-0.33218 -0.80299,-0.79238 -1.16319,-1.07102 -1.08216,-0.83715 -2.3885,-1.39618 -3.78949,-1.6217 -0.43887,-0.0705 -1.57404,-0.0874 -2.06409,-0.0305 -1.04022,0.12096 -1.92176,0.3847 -2.89392,0.86602 -2.89661,1.43412 -4.92432,4.43834 -5.56562,8.24595 -0.24543,1.45734 -0.3254,3.27707 -0.18544,4.22132 0.17089,1.15345 0.62947,2.20467 1.39654,3.20145 0.29891,0.38844 1.07181,1.13938 1.50939,1.46649 1.42854,1.06796 3.07772,1.71759 4.87085,1.91867 0.47166,0.0529 1.54626,0.0524 2.01154,-9.9e-4 z m -36.32091,-6.6153 c 3.72876,-0.3372 6.35559,-2.77366 7.51971,-6.97488 0.22478,-0.81121 0.35956,-1.48966 0.5165,-2.60004 0.074,-0.52349 0.0782,-0.60907 0.0795,-1.64302 0.001,-1.12452 -0.0174,-1.43304 -0.1291,-2.12485 -0.26107,-1.61647 -0.88686,-2.87818 -1.99269,-4.01758 -0.93749,-0.96601 -1.8756,-1.61098 -3.00206,-2.06401 -2.32036,-0.93319 -5.04005,-0.70294 -7.28847,0.61698 -2.72438,1.59935 -4.535746,4.55326 -5.10568,8.32608 -0.196858,1.30314 -0.254651,3.0084 -0.130625,3.85307 0.141948,0.96667 0.502885,1.90374 1.047605,2.71983 0.334565,0.50125 0.564767,0.78022 1.005336,1.21826 1.254024,1.24686 2.965724,2.14329 4.812324,2.52025 0.37124,0.0758 0.9241,0.15361 1.27951,0.18014 0.30349,0.0227 1.08854,0.0169 1.38824,-0.0101 z m -37.716264,-8.48082 c 3.006467,-1.21134 5.172444,-2.3009 6.703309,-3.37203 1.144362,-0.80075 2.05835,-1.71088 2.553126,-2.54244 0.753979,-1.26722 0.721854,-2.72528 -0.08704,-3.9401 -0.526346,-0.79061 -1.353087,-1.31186 -2.334569,-1.47187 -0.272934,-0.0445 -1.024787,-0.0434 -1.317416,0.002 -1.149811,0.1781 -2.30478,0.64297 -3.434233,1.38232 -0.885127,0.57937 -1.655547,1.34551 -2.217019,2.20457 -0.234433,0.35876 -0.603631,1.09343 -0.749255,1.49106 -0.655459,1.78968 -0.721733,3.93948 -0.185445,6.01679 0.06437,0.24932 0.123815,0.48198 0.132085,0.51704 0.0071,0.0352 0.02619,0.0639 0.03989,0.0639 0.0137,0 0.417087,-0.15796 0.896228,-0.35102 z m 97.538094,32.76102 c -0.71973,-0.0943 -1.43702,-0.45642 -1.94196,-0.98026 -0.48865,-0.50691 -0.7719,-1.0594 -0.90785,-1.7708 -0.0189,-0.099 -0.0337,-0.3522 -0.0327,-0.56257 9.9e-4,-0.37171 0.0101,-0.42836 0.32878,-2.01275 0.99638,-4.9663 2.39237,-12.59178 4.08161,-22.29561 0.55993,-3.21649 0.56888,-3.26515 0.74139,-4.02308 1.20026,-5.27289 3.70631,-9.18817 7.18945,-11.23224 0.40563,-0.23805 1.19203,-0.61145 1.63307,-0.77544 0.71546,-0.26603 1.46676,-0.45308 2.25235,-0.56079 0.53118,-0.0726 1.81028,-0.0735 2.32318,-10e-4 0.85916,0.1212 1.62222,0.32445 2.3515,0.62639 0.67093,0.27777 1.59154,0.81798 2.12488,1.24685 1.86737,1.50161 3.08293,3.60699 3.51232,6.08339 0.20828,1.20126 0.22764,2.51547 0.0563,3.83382 -0.17984,1.38489 -0.6258,2.95541 -1.25899,4.43386 -0.59782,1.39581 -1.22855,2.51136 -2.51798,4.45355 -5.50479,8.29135 -11.38436,16.09876 -16.34961,21.71053 -0.90494,1.02274 -1.14497,1.23738 -1.68764,1.50891 -0.56563,0.28301 -1.26636,0.40016 -1.89819,0.31732 z m 7.53304,-17.40852 c 1.33204,-1.80515 2.84097,-3.91807 4.16793,-5.83628 1.20966,-1.74863 3.02284,-4.44982 3.48971,-5.19882 1.04643,-1.67878 1.68255,-3.25697 1.91278,-4.74551 0.0799,-0.51654 0.0874,-1.44418 0.0154,-1.85602 -0.14713,-0.84006 -0.40404,-1.37426 -0.89921,-1.86977 -0.24728,-0.24746 -0.34151,-0.3206 -0.55845,-0.4334 -0.62626,-0.32568 -1.36873,-0.36575 -2.12604,-0.11461 -0.33821,0.11212 -0.84562,0.38674 -1.18605,0.64191 -1.70595,1.27864 -3.01667,3.80717 -3.69649,7.13092 -0.046,0.22595 -0.29467,1.62198 -0.55211,3.1023 -0.66736,3.83729 -1.7236,9.79834 -1.90953,10.77689 -0.016,0.084 -0.0291,0.17202 -0.0291,0.19577 0,0.043 0.45801,-0.5561 1.37097,-1.79329 z"
       id="path209"
       inkscape:connector-curvature="0" />
  </g>
</svg>
